# xmcd
#
# Track frame offsets: 
#        150
#        18559
#        43824
#        62096
#        79128
#        105235
#        130751
#        151918
#        173235
#        193685
#        214518
#        236844
#        259018
#        279781
#
# Disc length: 4020 seconds
#
# Revision: 0
# Processed by: cddbd v1.5.2PL0 Copyright (c) Steve Scherf et al.
# Submitted via: ExactAudioCopy v1.1
#
DISCID=b70fb20e
DTITLE=Gary Eisenbraun - The Door
DYEAR=2015
DGENRE=Blues Rock
TTITLE0=White Lie
TTITLE1=Something I Can Use
TTITLE2=Tattered Wings
TTITLE3=Worlds Apart
TTITLE4=Crashing To The Ground
TTITLE5=Be Careful
TTITLE6=Heart On The Line
TTITLE7=Wonder About You
TTITLE8=Faultline
TTITLE9=Because I Let You Down
TTITLE10=Fade Out Of View
TTITLE11=Pain Uprising
TTITLE12=Grass Is Greener
TTITLE13=Waiting In The Wings
EXTD=
EXTT0=
EXTT1=
EXTT2=
EXTT3=
EXTT4=
EXTT5=
EXTT6=
EXTT7=
EXTT8=
EXTT9=
EXTT10=
EXTT11=
EXTT12=
EXTT13=
PLAYORDER=
